<?xml version="1.0" encoding="utf-8"?>
<svg width="470px" height="245px" viewBox="0 0 470 245" version="1.1" xmlns:xlink="http://www.w3.org/1999/xlink" xmlns="http://www.w3.org/2000/svg" transform="translate(0,-1)">
  <defs>
    <linearGradient gradientUnits="userSpaceOnUse" x1="230" y1="0" x2="460" y2="16" id="gradient_1">
      <stop offset="0%" stop-color="#0017E1" />
      <stop offset="100%" stop-color="#00A6CD" />
    </linearGradient>
  </defs>
  <g id="rth" fill="#848484" transform="translate(227 21)">
    <path d="M174.565 64.6855Q162.363 69.998 146.592 71.4922Q146.177 72.5713 146.177 73.4014Q146.177 74.3145 146.592 75.3936Q157.798 76.0576 162.529 78.7969Q162.529 84.0264 162.612 106.771Q162.695 129.515 162.695 142.713Q162.695 171.268 162.363 179.485Q162.28 181.644 160.952 183.179Q159.624 184.715 157.009 185.545Q154.395 186.375 152.693 186.749Q150.991 187.122 148.252 187.454Q147.92 189.114 147.92 189.529Q147.92 190.027 148.252 191.355Q159.209 190.857 169.336 190.857Q179.629 190.857 190.586 191.355Q191.084 190.608 191.084 189.529Q191.084 188.45 190.586 187.454Q188.677 187.205 187.556 186.998Q186.436 186.79 184.443 186.167Q182.451 185.545 181.289 184.756Q180.127 183.968 179.172 182.598Q178.218 181.229 178.135 179.485Q177.803 170.438 177.471 135.906Q192.578 125.032 200.962 125.032Q209.927 125.032 209.927 140.057L209.761 179.485Q209.761 181.644 208.806 183.179Q207.852 184.715 205.984 185.545Q204.116 186.375 202.664 186.749Q201.211 187.122 199.053 187.454Q198.721 188.782 198.721 189.363Q198.721 190.027 199.053 191.355Q209.761 190.857 218.643 190.857Q227.441 190.857 238.149 191.355Q238.564 190.11 238.564 189.695Q238.564 189.529 238.149 187.454Q235.742 187.122 234.248 186.749Q232.754 186.375 230.513 185.545Q228.271 184.715 227.068 183.179Q225.864 181.644 225.781 179.485L225.117 137.317Q224.951 126.028 220.967 120.716Q216.982 115.403 207.603 115.403Q200.132 115.403 192.91 119.554Q185.688 123.704 177.471 130.677L177.471 66.9268Q176.807 65.5986 174.565 64.6855ZM104.507 101.292Q105.337 100.96 106.416 100.96Q107.495 100.96 108.657 101.292L108.657 119.471L133.809 119.471Q134.307 120.716 134.307 122.542Q134.307 124.119 133.809 125.447L108.657 125.447L108.657 169.773Q108.657 182.889 120.693 182.889Q125.259 182.889 128.538 181.146Q131.816 179.402 135.801 175.916Q137.876 176.165 138.54 177.908Q134.888 184.466 127.749 188.865Q120.61 193.265 112.061 193.265Q91.9727 193.265 91.9727 168.943L91.9727 125.447L81.7627 125.447Q81.4307 123.953 81.4307 123.538Q81.4307 123.455 81.7627 121.629Q85.7471 119.637 87.8638 118.35Q89.9805 117.063 93.2593 114.656Q96.5381 112.249 99.2358 108.97Q101.934 105.691 104.507 101.292ZM6.30859 122.542Q22.4121 120.882 34.3652 115.735Q36.4404 116.565 37.2705 117.894L37.2705 132.171Q40.3418 126.36 46.4429 120.882Q52.5439 115.403 59.1846 115.403Q64.165 115.403 67.2778 118.35Q70.3906 121.297 70.3906 126.443Q70.3906 131.341 67.4854 134.08Q64.5801 136.819 60.1807 136.819Q56.1133 136.819 53.4985 134.205Q50.8838 131.59 50.6348 127.273Q47.1484 128.768 42.7075 133.914Q38.2666 139.061 37.2705 144.124Q37.2705 162.635 37.9346 179.485Q38.0176 181.644 39.5117 183.179Q41.0059 184.715 43.9111 185.545Q46.8164 186.375 48.7256 186.749Q50.6348 187.122 53.7061 187.454Q54.2041 188.45 54.2041 189.529Q54.2041 190.359 53.7061 191.355Q41.2549 190.857 29.0527 190.857Q18.9258 190.857 7.96875 191.355Q7.63672 190.027 7.63672 189.529Q7.63672 189.114 7.96875 187.454Q10.708 187.122 12.4512 186.749Q14.1943 186.375 16.7676 185.545Q19.3408 184.715 20.6689 183.179Q21.9971 181.644 22.0801 179.485Q22.4121 171.268 22.4121 159.563Q22.4121 155.662 22.3291 146.282Q22.2461 136.902 22.2461 129.847Q17.5146 126.941 6.30859 126.443Q5.97656 125.115 5.97656 124.368Q5.97656 123.87 6.30859 122.542Z" />
  </g>
  <path d="M121 0L0 242L21 242L29 226L90.5 103L104 126L120.5 98L137 126L150.5 103L212 226L220 242L242 242L234 226L121 0Z" id="Vector" fill="#0017E1" fill-rule="evenodd" stroke="none" />
  <path d="M8 226L468 226L468 242L8 242L8 226Z" id="Rectangle-5" fill="url(#gradient_1)" fill-rule="evenodd" stroke="none" />
</svg>